<svg xmlns="http://www.w3.org/2000/svg" width="164" height="164" enable-background="new 0 0 164 164" viewBox="0 0 164 164" id="danger">
  <g>
    <path fill-rule="evenodd" d="M126.469,141.248c-9.756,0-22.389-4.881-32.371-7.564   c12.535-4.682,24.636-8.933,34.21-11.602c6.541-1.823,14.745,1.556,18.83-3.771c1.908-1.909,0.602-6.45-4.017-9.955   c1.281-5.389,0.156-9.664-5.794-9.684c-8.267-0.028-9.378,7.451-15.459,10.979c-8.444,4.898-26.766,12.66-43.955,19.004   c-9.77-3.697-26.698-10.124-36.608-15.427c-1.389-0.743-5.464-4.576-7.846-8.844c-3.808-6.819-9.966-6.798-12.288-3.933   c-2.678,3.303-0.442,6.587-0.442,10.06c-5.499,3.346-7.757,10.699-0.169,12.36c3.151,0.303,9.59,0.301,12.768,0.933   c10.395,2.07,21.11,5.744,30.064,9.948c-10.06,3.323-18.309,5.538-21.777,5.486c-5.21-0.077-10.474-1.032-15.277-1.603   c-8.368-0.993-14.714,6.016-4.104,12.576c1.833,1.133,1.767,1.876,1.343,3.805c-1.84,8.385,1.783,12.532,8.501,8.313   c4.417-2.463,8.622-8.105,14.3-10.261c9.497-3.604,21.148-8.218,33.137-12.842c13.392,4.876,28.259,10.068,41.501,15.259   c5.918,2.319,8.918,9.358,16.185,9.373c4.789,0.009,5.576-5.872,4.734-9.603c-1.007-4.458,4.079-3.959,5.474-7.962   c1.907-5.478-4.151-7.813-7.922-7.669C133.915,138.842,133.063,141.248,126.469,141.248z" clip-rule="evenodd" fill="#ff0000"/>
    <path fill-rule="evenodd" d="M80.578,102.799c-0.094-1.172,0.325-2.787,0.999-5.539c0,0-3.55,0-3.876,0   c-0.325,0,0.726,4.56,0.491,5.375c-0.196,0.688-0.673,1.392-1.563,2.311c-0.189,0.195-0.468-2.001-0.588-3.027   c-0.163-1.4,1.114-4.658,1.114-4.658c-0.718,0-4.538-0.622-4.411-0.496c0.501,2.187,0.333,3.4,0.18,4.848   c-0.07,0.657-0.137,1.361-0.137,2.229c-1.013,0.92-2.484-0.97-2.439-1.934c0.038-0.787,1.262-2.923,1.599-5.488   c0.018-0.141-2.417-0.881-2.613-1.076c-1.22,0-1.192,0.507-2.023,1.338c-0.469,0.47,0.193,4.247,0.526,4.949   c1.085,2.276-4.915-0.75-6.58-3.265c-3.224-4.862-2.738-12.413-2.738-13.74c0-2.194,0-4.387,0-6.581   c-5.196,5.306-7.473-0.622-10.424-3.316c0,8.249,5.961,14.888,7.687,22.533c0.287,1.267,1.19,1.434,1.632,3.264   c0.812,3.354,1.347,4.119-0.58,8.791c-0.043,0.107,1.308,1.011,1.686,2.213c3.083,0,6.612,2.188,8.792,4.368   c3.814,3.814,10.852,6.519,14.268,0l0,0c2.576,4.462,8.238,4.518,12.377,1.597c4.066-2.867,6.036-5.965,11.735-5.965   c0.167-1.028,0.265-1.479,0.577-2.213c-2.449-2.223-1.438-6.041-0.577-8.791c0.192-0.176,0.385-0.352,0.577-0.527   c0-2.275,8.793-15.838,8.793-24.691c0-3.008-3.744,7.384-9.897,3.263c-0.741-0.495-0.21,1.611,0,6.582   c0.114,2.688-0.494,12.514-5.475,14.267c-0.75,0.265-1.707,1.852-2.128,4.097c0,0-1.632-0.969-1.716-1.307   c-0.672-2.532,0.352-3.067,0-4.947c-0.479-2.566-3.327-0.956-4.981-0.673c-0.43,0.073,0.992,3.466,1.622,5.992   c-0.124,1.083-1.046,1.998-1.59,2.366c-0.344,0.234-0.612-1.69-0.678-1.997c-0.287-1.362-0.134-3.654-0.134-6.278   c0-0.291-3.16,0.465-3.358,0.527c-0.244,0.076,0.588,5.022,0.632,5.447c0.1,0.973-0.302,1.944-0.885,2.828   c-0.798-0.529-1.311-1.519-1.318-2.932c-0.007-1.149,0.919-2.757,0.919-5.344c0,0-3.501-0.084-3.823-0.084s0.811,4.475,0.913,5.623   c0.129,1.49-0.199,2.736-1.585,2.736S80.593,102.975,80.578,102.799L80.578,102.799z M67.112,61.236   c-5.925,0-10.728-4.245-10.728-9.48c0-5.236,4.803-9.48,10.728-9.48c5.925,0,10.728,4.244,10.728,9.48   C77.84,56.992,73.037,61.236,67.112,61.236L67.112,61.236z M96.568,61.236c-5.926,0-10.729-4.245-10.729-9.48   c0-5.236,4.803-9.48,10.729-9.48c5.925,0,10.728,4.244,10.728,9.48C107.296,56.992,102.493,61.236,96.568,61.236L96.568,61.236z    M81.577,84.624c-1.069,1.036-1.685,1.25-1.685,2.737c2.079,1.894,1.019,5.564,1.665,8.213c-2.425,0-3.707-0.526-6.099-0.526   c0-3.313,2.436-8.053,0.063-10.424c-0.368,0-0.737,0-1.105,0c-2.381,4.996,0.159,3.498,0.159,10.382   c-2.595,0-4.288-0.799-6.741-1.59c0-3.456,1.633-6.184,1.633-9.318c-0.721,0.351-1.439,0.7-2.16,1.053   c0,3.254,1.217,4.943-1.348,7.507c-0.299,0.506-1.699,1.14-2.495,1.285c-2.461-2.233-1.792-5.542-2.211-8.213   c-0.477-3.031,1.632-5.353,1.632-8.266c1.286-2.504,0.662-4.508-3.844-5.308c-6.406-0.462-22.48-2.259-22.48-6.222   c2.637-2.637,3.891-2.992,8.213-2.737c9.677,0.566-0.816-13.461-1.632-15.373c-3.042-7.141-2.167-6.197-1.632-14.269   c3.095-46.692,81.914-42.218,80.655,1.106c-0.168,5.757,2.366,9.235-2.821,14.847c-2.452,2.652-3.527,5.487-4.286,9.845   c-4.769,7.548,10.597,2.944,12.057,7.161c-4.677,4.676-14.619,4.134-20.85,5.475c-4.418,1.22-5.987,4.313-5.475,6.58   c0.73,3.233,2.285,5.321,1.054,8.793c1.304,2.49-0.412,5.238-2.158,7.16c-1.777-0.93-2.742-1.664-3.877-3.76   c0-1.794,0.033-3.277,0.033-5.032c-0.598-0.724-1.292-1.105-2.147-1.105c-0.324,3.485,1.885,6.326,2.022,9.36   c-2.208,0.759-3.804,1.063-6.152,1.063c-1.456-4.964,1.438-6.98-1.41-10.424c-1.91,1.736,0.401,7.447,0.401,10.424   c-2.162,0.697-4.066,0.442-6.328,0.442c0-3.035-0.77-5.854,1.505-8.129C83.734,85.834,82.914,85.26,81.577,84.624L81.577,84.624z    M81.172,69.54c0.546-1.621,1.56-2.629,2.548-4.079c3.884,1.845,5.08,11.032,1.829,14.283c-1.875-0.521-3.004-1.126-3.972-3.912   c-1.15,2.376-2.025,3.36-4.66,3.605c-2.139-5.06-2.245-9.021,1.529-14.029C80.193,66.564,80.766,67.662,81.172,69.54z" clip-rule="evenodd" fill="#ff0000"/>
  </g>
</svg>